HIERARCHY
ROOT Hips
{
  OFFSET 5.02557 85.9154 2.79385
  CHANNELS 6 Xposition Yposition Zposition Zrotation Xrotation Yrotation
  JOINT Spine
  {
    OFFSET -0.000355721 21.3001 -0.016921
    CHANNELS 3 Zrotation Xrotation Yrotation
    JOINT LeftArm
    {
      OFFSET 13.5181 21.3012 0
      CHANNELS 3 Zrotation Xrotation Yrotation
      JOINT LeftForeArm
      {
        OFFSET 24.5783 0 0
        CHANNELS 3 Zrotation Xrotation Yrotation
        JOINT LeftHand
        {
          OFFSET 24.5783 0 0
          CHANNELS 3 Zrotation Xrotation Yrotation
          End Site
          {
            OFFSET 7.32568 1.52588e-05 0.0169305
          }
        }
      }
    }
    JOINT Head
    {
      OFFSET 0 27.4458 -0.00489235
      CHANNELS 3 Zrotation Xrotation Yrotation
      End Site
      {
        OFFSET 0 0 0
      }
    }
    JOINT RightArm
    {
      OFFSET -13.5174 21.3012 0
      CHANNELS 3 Zrotation Xrotation Yrotation
      JOINT RightForeArm
      {
        OFFSET -24.5783 0 0
        CHANNELS 3 Zrotation Xrotation Yrotation
        JOINT RightHand
        {
          OFFSET -24.5783 0 0
          CHANNELS 3 Zrotation Xrotation Yrotation
          End Site
          {
            OFFSET -7.32568 1.52588e-05 0.0169305
          }
        }
      }
    }
  }
  JOINT RightUpLeg
  {
    OFFSET -8.44614 -9.41038 0.835684
    CHANNELS 3 Zrotation Xrotation Yrotation
    JOINT RightLeg
    {
      OFFSET 0 -40.9639 0
      CHANNELS 3 Zrotation Xrotation Yrotation
      JOINT RightFoot
      {
        OFFSET 0 -40.9639 0
        CHANNELS 3 Zrotation Xrotation Yrotation
        End Site
        {
          OFFSET 0.50614 -9.67405 14.6709
        }
      }
    }
  }
  JOINT LeftUpLeg
  {
    OFFSET 8.44614 -9.41038 0.835684
    CHANNELS 3 Zrotation Xrotation Yrotation
    JOINT LeftLeg
    {
      OFFSET 0 -40.9639 0
      CHANNELS 3 Zrotation Xrotation Yrotation
      JOINT LeftFoot
      {
        OFFSET 0 -40.9639 0
        CHANNELS 3 Zrotation Xrotation Yrotation
        End Site
        {
          OFFSET -0.50614 -9.67405 14.6709
        }
      }
    }
  }
}
MOTION
Frames:	16
Frame Time:	0.0333333
5.78805 85.8178 3.03031 -1.67221 -3.72563 -55.4221 -1.22007 3.89596 0.50021 -47.1052 -37.7668 2.21043 -0.000110438 -2.9534e-05 -104.001 1.30654 -14.0197 0.731823 -15.1307 5.32056 38.8642 49.3451 21.5974 50.502 -0.000274443 -2.55586e-06 99.6425 -0.226338 -2.83143 23.377 -26.7894 -13.0075 -20.4632 -3.34383 36.8188 11.9126 20.9067 -45.1936 5.32136 20.1603 -16.8381 17.9701 2.01859 38.7033 -6.62427 -16.6019 -43.5711 -1.58149 
5.90136 85.4295 3.05011 -1.18482 -3.84947 -52.8239 -1.02707 4.02347 0.475096 -50.0943 -35.9132 -1.8234 -0.000110185 -2.85002e-05 -103.502 1.40974 -13.8216 0.709593 -15.1294 5.23108 36.2406 50.7113 20.5866 48.9337 -0.000274419 -2.693e-06 100.165 -0.315475 -1.91193 23.7188 -28.0442 -12.6261 -21.3845 -2.64824 38.2601 11.5572 20.495 -46.4326 4.35656 19.769 -19.015 17.5267 2.25597 40.2609 -8.52974 -15.8592 -43.961 -1.56854 
5.93339 84.8743 3.14959 -1.08836 -4.4403 -50.4152 -0.915437 4.28075 0.589586 -53.8285 -33.7722 -6.37947 -0.000109992 -2.76855e-05 -103.109 1.42227 -13.7619 0.702379 -15.4516 6.0481 33.4615 52.1245 19.7558 47.0524 -0.00027441 -2.74168e-06 100.351 -0.700804 -1.82056 23.8445 -29.6868 -11.7324 -22.5018 -1.93955 40.1738 11.1724 20.7637 -47.7424 4.56528 19.151 -20.6257 16.9209 2.65709 42.2881 -10.5045 -15.2058 -44.7346 -1.62244 
5.75591 84.1989 3.3009 -1.65688 -5.59729 -49.2709 -1.02474 4.58688 0.895744 -57.2749 -31.6811 -10.0812 -0.000109798 -2.68363e-05 -102.7 1.38777 -13.6926 0.692963 -15.8534 8.30208 31.7368 53.5288 19.6683 45.4874 -0.000274467 -2.41066e-06 99.0899 -0.652966 -2.89791 24.1523 -31.1083 -10.6193 -23.1129 -1.90729 42.4028 11.1765 22.0689 -48.9853 6.35603 18.8865 -20.7292 16.7279 2.86959 44.5383 -11.7952 -15.0367 -45.8859 -2.13849 
5.19158 83.5403 3.47692 -2.96298 -7.09947 -50.1368 -1.39923 4.63201 1.23625 -59.675 -30.3245 -11.6732 -0.000109668 -2.62512e-05 -102.418 1.44619 -13.4839 0.668811 -15.9754 12.9385 31.7678 55.2163 20.7233 44.5776 -0.000274572 -1.62393e-06 96.1093 0.328209 -3.73442 24.2952 -31.5455 -9.76018 -22.4892 -3.24636 44.5673 12.0906 24.2119 -50.1744 9.20995 19.2885 -18.7984 17.1361 2.88767 46.4044 -11.879 -15.9056 -47.2738 -3.33673 
4.12072 83.1431 3.70844 -4.8996 -8.24189 -53.0797 -1.98899 4.11735 1.39522 -60.6744 -30.4501 -10.313 -0.000110043 -2.78997e-05 -103.212 1.58983 -13.2307 0.641567 -16.3707 21.0143 33.0642 57.1425 22.5902 43.8191 -0.000274637 -7.96272e-07 92.9913 1.75025 -2.04282 23.1965 -30.2606 -9.28351 -20.3378 -5.86476 45.8339 13.9128 26.45 -51.2402 12.0228 19.994 -14.9975 17.4979 3.42291 47.007 -12.1183 -16.7548 -49.0605 -2.79485 
2.53899 83.2188 4.0277 -7.25816 -8.09536 -57.8528 -2.72433 3.09434 1.36906 -59.8514 -32.9958 -5.33095 -0.000111825 -3.46229e-05 -106.477 1.57581 -13.3313 0.652274 -18.9208 31.6829 35.0801 58.2761 24.4025 42.6737 -0.000274648 -5.46982e-07 92.0543 3.79936 2.84077 20.2772 -26.8107 -9.00605 -16.9023 -8.80612 45.451 15.8972 28.0543 -51.8673 14.1101 20.6045 -9.77097 17.2901 5.29778 45.5476 -10.0846 -20.5833 -50.1587 -3.74056 
0.552479 83.711 4.33031 -9.69694 -6.33499 -64.4336 -3.59034 1.82744 1.25168 -55.7921 -39.3881 5.05908 -0.000116531 -4.77332e-05 -113.019 1.14814 -14.6162 0.791808 -24.3714 40.6972 37.3125 56.4398 25.713 41.8815 -0.000274621 -1.0655e-06 94.0041 6.46161 8.08644 16.1024 -21.7293 -8.90231 -12.8289 -11.2895 43.6512 17.3544 29.2381 -51.552 16.357 20.9854 -3.00506 16.8826 8.00559 41.5659 -5.88019 -26.1279 -50.0214 -4.8168 
-1.63625 84.3041 4.3579 -11.7512 -3.56756 -72.8557 -4.51794 0.483642 1.02934 -43.7765 -50.0617 25.2458 -0.000124702 -6.36216e-05 -121.412 0.263965 -18.5763 1.2877 -28.4324 43.6188 35.7573 49.4726 25.6757 43.1776 -0.000274535 -1.93137e-06 97.2717 7.77339 9.67561 12.9313 -16.534 -9.32852 -9.00286 -13.1376 41.761 18.2651 30.9026 -49.9998 20.6609 20.6437 5.73238 17.1556 10.2191 34.8903 1.02274 -31.4727 -47.9588 -5.04877 
-3.70846 84.6922 3.87965 -13.1776 -0.592857 -82.2885 -5.30089 -0.801238 0.823696 -17.6398 -58.3467 59.4989 -0.000131915 -7.41528e-05 -127.406 -0.196666 -24.8803 2.39061 -25.5671 39.704 26.6799 39.6283 22.3795 45.7822 -0.000274411 -2.73795e-06 100.337 7.94193 7.59629 11.9433 -12.3265 -10.5371 -6.1342 -14.1976 41.2219 18.8822 32.7979 -47.6321 27.0602 19.748 16.1264 18.4815 9.77078 26.0047 5.70444 -30.081 -46.5187 1.69064 
-5.31455 84.8292 2.88349 -14.181 2.56671 -90.5009 -5.61248 -1.69154 0.728277 3.788 -58.411 88.4201 -0.000133161 -7.57545e-05 -128.359 0.820116 -28.8813 3.57754 -16.6863 30.8734 14.2232 33.4507 16.8577 45.8138 -0.000274283 -3.36509e-06 102.74 9.17461 5.14954 11.6223 -8.70769 -11.6549 -4.39187 -13.9328 42.016 18.9054 33.2937 -45.477 32.762 19.9357 22.7878 20.4966 9.47634 23.2961 8.64784 -20.9101 -44.2359 8.85267 
-6.156 84.9097 1.7157 -14.8298 6.38709 -95.253 -5.35101 -1.97361 0.473521 5.03447 -59.9259 95.2763 -0.00013012 -7.17443e-05 -125.996 2.46298 -28.7788 3.89964 -5.3978 20.2597 3.65532 33.1868 12.5976 42.0694 -0.000274176 -3.80714e-06 104.448 10.5985 3.84358 11.6364 -4.85138 -11.4785 -3.4127 -11.5674 42.5597 17.4383 31.4579 -44.1514 34.9635 23.3969 25.8811 22.2911 10.0239 24.2352 9.15627 -22.9646 -37.8759 8.02989 
-6.25135 84.9902 0.55385 -14.9498 10.5957 -96.2396 -4.84289 -1.78881 -0.131652 -11.2365 -64.598 80.9406 -0.000126153 -6.59392e-05 -122.695 3.77347 -26.0936 3.33148 4.77809 9.73465 -3.45618 36.4215 10.6702 36.5853 -0.00144903 -4.09276e-06 105.559 10.1425 2.82756 12.8305 -0.525052 -10.4773 -2.63414 -7.6763 42.0991 14.7721 27.7614 -43.7377 33.2122 29.3463 25.7048 23.517 11.8011 26.3001 9.00765 -25.5176 -32.3255 4.19562 
-5.83253 84.9789 -0.62895 -14.5841 14.2746 -95.1863 -4.55274 -1.45431 -0.83261 -37.7875 -65.5973 53.586 -0.000123316 -6.12947e-05 -120.141 4.181 -23.4205 2.66126 10.0444 0.221231 -7.10646 39.6472 10.3201 32.3801 -0.0261988 -4.09368e-06 105.562 7.84725 1.56376 15.2613 3.67822 -9.98875 -1.70559 -3.89404 41.194 12.1415 23.5544 -43.7793 29.4863 36.1751 23.7295 23.8441 12.3014 28.1638 7.73368 -26.0731 -29.8537 1.60228 
-5.14939 84.9006 -1.78581 -13.667 17.012 -94.0156 -4.48734 -1.13496 -1.40461 -56.7614 -62.4406 33.1199 -0.00012279 -6.03789e-05 -119.645 3.72491 -22.5182 2.40076 9.376 -7.20513 -8.19888 41.1108 10.9553 30.4968 -0.00419569 -3.78459e-06 104.361 5.47789 1.02038 17.8895 7.0922 -10.7392 -0.739537 -0.928394 40.4485 10.1539 19.9209 -43.6336 26.0328 41.1339 21.7077 24.6292 12.2917 28.03 5.44717 -25.7496 -30.2709 1.57974 
-4.35054 84.8766 -2.77631 -11.7343 19.1002 -93.5811 -4.46279 -0.932504 -1.81604 -66.0693 -59.7329 22.9249 -0.000125113 -6.42892e-05 -121.78 2.88642 -23.558 2.57233 4.84252 -12.9023 -7.7061 41.053 11.8806 29.8527 -0.00234946 -3.42279e-06 102.963 4.18168 1.53997 19.6177 9.60399 -12.7654 -0.0164548 1.64553 39.5172 8.41128 17.2191 -42.7638 23.894 44.133 19.8011 26.1144 11.9081 26.3123 4.93672 -26.2649 -31.4026 1.2662 
